<?xml version="1.0" encoding="UTF-8" standalone="no"?>
<svg
   width="424"
   height="424"
   xml:space="preserve"
   overflow="hidden"
   version="1.1"
   id="svg11"
   sodipodi:docname="logo.svg"
   inkscape:version="1.1.2 (b8e25be833, 2022-02-05)"
   xmlns:inkscape="http://www.inkscape.org/namespaces/inkscape"
   xmlns:sodipodi="http://sodipodi.sourceforge.net/DTD/sodipodi-0.dtd"
   xmlns="http://www.w3.org/2000/svg"
   xmlns:svg="http://www.w3.org/2000/svg"><sodipodi:namedview
     id="namedview13"
     pagecolor="#ffffff"
     bordercolor="#666666"
     borderopacity="1.0"
     inkscape:pageshadow="2"
     inkscape:pageopacity="0.0"
     inkscape:pagecheckerboard="0"
     showgrid="false"
     height="424px"
     inkscape:zoom="1.779703"
     inkscape:cx="379.27677"
     inkscape:cy="202.28095"
     inkscape:window-width="2560"
     inkscape:window-height="1494"
     inkscape:window-x="-11"
     inkscape:window-y="-11"
     inkscape:window-maximized="1"
     inkscape:current-layer="svg11" /><defs
     id="defs5"><clipPath
       id="clip0"><rect
         x="1141"
         y="796"
         width="424"
         height="404"
         id="rect2" /></clipPath></defs><g
     clip-path="url(#clip0)"
     transform="translate(-1141,-786)"
     id="g9"><path
       d="m 1481.1,1040.72 c -6.89,-3.67 -14.71,-7.84 -23.05,-12.33 -1.64,-0.88 -3.67,-0.66 -5.08,0.57 l -66.03,57.54 -65.91,-57.53 c -1.42,-1.23 -3.44,-1.46 -5.09,-0.57 -11.33,6.1 -21.49,11.44 -30.45,16.15 -28.19,14.82 -45.9,24.13 -57.16,34.46 -4.1,-1.64 -8.09,-3.49 -11.95,-5.54 l 14.93,-25.76 c 1.25,-2.15 0.52,-4.9 -1.64,-6.15 -2.14,-1.25 -4.9,-0.51 -6.14,1.64 l -14.95,25.77 c -16.04,-10.06 -29.47,-23.6 -39.41,-39.37 l 25.77,-14.81 c 2.16,-1.24 2.9,-3.99 1.66,-6.15 -1.23,-2.16 -3.98,-2.9 -6.14,-1.66 l -25.81,14.83 c -8.72,-16.31 -13.86,-34.608 -14.56,-53.661 h 29.9 c 2.49,0 4.5,-2.015 4.5,-4.502 0,-2.487 -2.01,-4.503 -4.5,-4.503 h -29.9 c 0.7,-19.349 5.85,-37.581 14.47,-53.712 l 25.9,14.89 c 0.71,0.406 1.48,0.599 2.24,0.599 1.55,0 3.07,-0.811 3.9,-2.26 1.24,-2.155 0.5,-4.907 -1.66,-6.146 l -25.85,-14.864 c 10.03,-15.87 23.56,-29.336 39.5,-39.316 l 14.94,25.763 c 0.83,1.44 2.34,2.244 3.89,2.244 0.77,0 1.55,-0.196 2.26,-0.609 2.15,-1.246 2.88,-4.003 1.63,-6.153 l -14.92,-25.743 c 16.21,-8.588 34.52,-13.721 53.96,-14.41 v 29.761 c 0,2.487 2.02,4.502 4.5,4.502 2.49,0 4.5,-2.014 4.5,-4.502 v -29.763 c 9.64,0.342 19.15,1.786 28.41,4.299 -5.84,11.294 -9.13,23.986 -9.13,37.396 0,42.365 30.79,121.39 89.65,121.39 58.86,0 89.66,-79.025 89.66,-121.39 0,-46.935 -40.22,-85.12 -89.66,-85.12 -31.86,0 -59.89,15.867 -75.8,39.713 -12.19,-3.556 -24.83,-5.378 -37.63,-5.378 -73.8,0 -133.85,59.804 -133.85,133.314 0,27.667 8.43,54.201 24.39,76.731 14.34,20.26 33.75,35.94 56.4,45.67 -1.04,1.34 -2,2.71 -2.88,4.13 -9.86,15.85 -9.64,36.07 -9.19,76.35 0.1,8.56 0.21,18.27 0.23,28.98 0.01,2.48 2.02,4.49 4.5,4.49 h 344.96 c 1.2,0 2.34,-0.48 3.19,-1.33 0.84,-0.85 1.32,-2 1.31,-3.19 -0.05,-10.8 0,-20.57 0.04,-29.19 0.43,-80.47 -0.34,-81.64 -82.85,-125.57 z m -12.16,-159.601 c 0,22.094 -8.4,50.308 -21.4,71.878 -11.14,18.48 -30.46,40.512 -59.26,40.512 0,0 -0.01,0 -0.01,0 28.81,0 48.13,-22.033 59.26,-40.512 13,-21.57 21.4,-49.784 21.4,-71.878 0,-41.97 -36.18,-76.114 -80.66,-76.114 0,0 0.01,0 0.01,0 44.47,0 80.66,34.143 80.66,76.114 z m -238.45,208.531 c -0.36,0.41 -0.7,0.82 -1.04,1.24 0.33,-0.42 0.68,-0.83 1.04,-1.24 z m 1.68,-1.81 c -0.4,0.4 -0.78,0.81 -1.16,1.23 0.38,-0.42 0.76,-0.83 1.16,-1.23 z m -5.42,6.79 c 0.27,-0.44 0.56,-0.86 0.85,-1.29 -0.29,0.43 -0.58,0.85 -0.85,1.29 z m 1.29,-1.91 c 0.3,-0.42 0.62,-0.83 0.94,-1.25 -0.32,0.42 -0.64,0.83 -0.94,1.25 z m 5.58,-6.33 c 0.01,-0.01 0.02,-0.01 0.02,-0.02 0,0.01 -0.01,0.02 -0.02,0.02 z m 1.21,-1.11 c 0.05,-0.05 0.1,-0.1 0.16,-0.15 -0.06,0.05 -0.11,0.1 -0.16,0.15 z m 1.33,-1.17 c 0.04,-0.04 0.08,-0.07 0.12,-0.11 -0.04,0.04 -0.08,0.07 -0.12,0.11 z m 4.47,-3.54 c 0.05,-0.03 0.09,-0.07 0.14,-0.1 -0.05,0.03 -0.09,0.07 -0.14,0.1 z m 1.6,-1.16 c 0.05,-0.03 0.1,-0.07 0.15,-0.1 -0.05,0.03 -0.1,0.07 -0.15,0.1 z m 7.36,-4.86 c 0.02,-0.02 0.04,-0.03 0.06,-0.04 -0.02,0.01 -0.04,0.02 -0.06,0.04 z m 128.66,95.2 v -17.19 h 17.36 v 17.19 z m 17.36,-34.34 h -17.36 v -17.19 h 17.36 z m -11.63,-39.55 c 0.84,0.74 1.9,1.11 2.95,1.11 -1.06,0 -2.11,-0.37 -2.96,-1.11 l -66.52,-58.05 c 0,-0.01 0,-0.01 0.01,-0.01 z m 170.97,70.38 c -0.04,7.43 -0.08,15.7 -0.06,24.76 v 0 c -0.02,-9.06 0.02,-17.33 0.06,-24.76 0.2,-38.29 0.31,-57.51 -9,-71.57 -9.42,-14.24 -29.36,-24.85 -69.08,-46 -6.14,-3.27 -13.02,-6.93 -20.34,-10.87 v 0 c 7.32,3.93 14.2,7.6 20.35,10.87 39.71,21.15 59.65,31.76 69.08,46 9.3,14.06 9.2,33.28 8.99,71.57 z"
       fill="#ffffff"
       fill-rule="evenodd"
       id="path7" /></g></svg>
