<?xml version="1.0" encoding="UTF-8"?>
<!DOCTYPE svg PUBLIC "-//W3C//DTD SVG 1.1//EN" "http://www.w3.org/Graphics/SVG/1.1/DTD/svg11.dtd">
<svg xmlns="http://www.w3.org/2000/svg" version="1.1" width="884px" height="966px" style="shape-rendering:geometricPrecision; text-rendering:geometricPrecision; image-rendering:optimizeQuality; fill-rule:evenodd; clip-rule:evenodd" xmlns:xlink="http://www.w3.org/1999/xlink">
<g><path style="opacity:1" fill="#021a22" d="M 320.5,-0.5 C 320.833,-0.5 321.167,-0.5 321.5,-0.5C 334.066,8.96283 342.399,21.2962 346.5,36.5C 346.565,39.4282 347.232,42.0948 348.5,44.5C 351.509,66.6074 347.009,87.2741 335,106.5C 328.429,116.407 321.096,125.741 313,134.5C 304.428,144.639 300.762,156.306 302,169.5C 302.725,171.949 303.725,174.283 305,176.5C 312.167,170 319.333,163.5 326.5,157C 334.089,151.739 341.922,146.906 350,142.5C 367.876,107.597 393.042,79.0967 425.5,57C 431.046,54.0602 436.713,51.3935 442.5,49C 444.167,48.3333 445.833,48.3333 447.5,49C 437.466,75.5693 433.299,103.069 435,131.5C 463.317,118.14 493.151,112.14 524.5,113.5C 526.265,114.461 528.265,114.795 530.5,114.5C 530.5,110.167 530.5,105.833 530.5,101.5C 530.5,101.167 530.5,100.833 530.5,100.5C 531.913,97.7814 532.58,94.7814 532.5,91.5C 534.51,81.4809 538.677,72.4809 545,64.5C 562.047,45.0594 583.547,34.2261 609.5,32C 619.167,31.3333 628.833,31.3333 638.5,32C 624.073,40.9233 613.406,53.09 606.5,68.5C 605.691,69.4687 604.691,70.3021 603.5,71C 603.344,77.9048 603.678,84.7381 604.5,91.5C 605.388,94.0545 605.721,96.7212 605.5,99.5C 605.294,102.495 605.96,105.162 607.5,107.5C 607.5,109.167 607.5,110.833 607.5,112.5C 611.116,129.082 614.283,145.749 617,162.5C 621.618,165.45 625.952,168.784 630,172.5C 630.383,171.944 630.883,171.611 631.5,171.5C 660.721,194.372 684.054,222.039 701.5,254.5C 700.637,253.537 699.97,253.537 699.5,254.5C 700.373,256.413 701.373,258.247 702.5,260C 698.834,259.597 695.334,258.43 692,256.5C 690.989,257.337 689.822,257.67 688.5,257.5C 683.073,256.477 677.74,255.143 672.5,253.5C 671.531,252.691 670.698,251.691 670,250.5C 668.644,251.38 667.144,251.714 665.5,251.5C 659.455,250.588 653.455,249.754 647.5,249C 658.711,256.538 669.045,265.205 678.5,275C 708.864,284.947 738.198,297.114 766.5,311.5C 768.026,314.893 770.693,316.226 774.5,315.5C 778.151,384.651 771.151,452.985 753.5,520.5C 752.172,521.507 751.172,522.84 750.5,524.5C 749.882,527.813 748.882,530.979 747.5,534C 748.337,535.011 748.67,536.178 748.5,537.5C 745.848,547.96 742.681,558.293 739,568.5C 738.623,569.942 737.79,570.942 736.5,571.5C 735.493,571.452 735.16,572.452 735.5,574.5C 777.835,574.667 820.168,574.5 862.5,574C 820.331,573.833 778.331,573.333 736.5,572.5C 779.505,572.167 822.505,572.5 865.5,573.5C 850.978,599.226 835.978,624.56 820.5,649.5C 818.549,650.282 817.049,651.616 816,653.5C 812.654,658.521 810.154,663.854 808.5,669.5C 805.906,675.186 802.906,680.686 799.5,686C 827.148,735.473 855.148,784.64 883.5,833.5C 883.5,834.5 883.5,835.5 883.5,836.5C 876.597,838.309 869.597,839.642 862.5,840.5C 857.969,839.208 853.969,840.208 850.5,843.5C 832.608,847.805 814.608,851.805 796.5,855.5C 794.022,855.228 791.689,854.562 789.5,853.5C 789.144,852.13 788.31,851.13 787,850.5C 781.387,847.905 775.554,846.238 769.5,845.5C 768.889,864.329 768.889,883.329 769.5,902.5C 761.202,901.01 752.869,899.677 744.5,898.5C 743.5,898.667 742.5,898.833 741.5,899C 743.058,899.21 744.391,899.71 745.5,900.5C 685.215,891.888 624.715,885.888 564,882.5C 561.931,883.264 559.764,883.764 557.5,884C 526.43,916.589 490.764,942.756 450.5,962.5C 447.839,961.646 445.506,962.312 443.5,964.5C 400.946,944.212 363.28,917.046 330.5,883C 302.101,883.29 273.768,884.957 245.5,888C 201.02,892.435 156.687,897.935 112.5,904.5C 112.566,885.155 112.733,865.821 113,846.5C 103.884,850.308 94.7176,853.975 85.5,857.5C 68.0826,853.026 50.7492,848.359 33.5,843.5C 31.5615,841.837 29.2282,841.171 26.5,841.5C 24.1617,839.96 21.4951,839.294 18.5,839.5C 12.0216,838.297 5.68824,836.631 -0.5,834.5C -0.5,833.833 -0.5,833.167 -0.5,832.5C 13.1534,811.87 26.8201,791.203 40.5,770.5C 41.1174,770.389 41.6174,770.056 42,769.5C 42.4966,767.19 42.6633,764.857 42.5,762.5C 46.9697,719.921 52.3031,677.588 58.5,635.5C 59.7944,633.32 59.4611,631.32 57.5,629.5C 51.5968,618.025 45.9302,606.359 40.5,594.5C 39.7525,589.67 38.4191,585.003 36.5,580.5C 76.1681,580.667 115.835,580.5 155.5,580C 153.336,575.674 151.669,571.174 150.5,566.5C 150.33,565.178 150.663,564.011 151.5,563C 147.743,554.064 144.576,544.897 142,535.5C 141.583,534.244 140.75,533.577 139.5,533.5C 118.866,463.094 110.033,391.094 113,317.5C 153.46,295.956 195.96,279.623 240.5,268.5C 240.248,263.481 239.748,258.481 239,253.5C 231.445,246.461 225.279,238.461 220.5,229.5C 218.583,222.99 216.083,216.657 213,210.5C 212.617,211.056 212.117,211.389 211.5,211.5C 193.982,159.555 207.648,118.389 252.5,88C 270.836,77.9151 287.669,65.7484 303,51.5C 314.967,36.3273 320.8,18.9939 320.5,-0.5 Z"/></g>
<g><path style="opacity:0.929" fill="#737f85" d="M 346.5,36.5 C 348.04,38.8383 348.706,41.5049 348.5,44.5C 347.232,42.0948 346.565,39.4282 346.5,36.5 Z"/></g>
<g><path style="opacity:1" fill="#bda579" d="M 589.5,60.5 C 586.608,64.3319 584.774,68.6653 584,73.5C 583.333,81.8333 583.333,90.1667 584,98.5C 586.705,111.985 590.038,125.318 594,138.5C 601.751,171.49 594.751,200.823 573,226.5C 558.857,244.32 540.69,255.653 518.5,260.5C 503.967,255.3 493.634,245.633 487.5,231.5C 553.124,215.685 580.958,174.019 571,106.5C 571.123,91.1347 575.456,77.1347 584,64.5C 585.451,62.5359 587.284,61.2026 589.5,60.5 Z"/></g>
<g><path style="opacity:0.225" fill="#c1c7c8" d="M 606.5,68.5 C 604.862,76.0647 604.195,83.7314 604.5,91.5C 603.678,84.7381 603.344,77.9048 603.5,71C 604.691,70.3021 605.691,69.4687 606.5,68.5 Z"/></g>
<g><path style="opacity:0.878" fill="#7e898b" d="M 532.5,91.5 C 532.58,94.7814 531.913,97.7814 530.5,100.5C 530.42,97.2186 531.087,94.2186 532.5,91.5 Z"/></g>
<g><path style="opacity:1" fill="#7f0411" d="M 417.5,93.5 C 414.395,107.319 412.728,121.319 412.5,135.5C 404.443,136.065 396.443,137.065 388.5,138.5C 394.917,121.314 404.584,106.314 417.5,93.5 Z"/></g>
<g><path style="opacity:0.202" fill="#b5bcbd" d="M 605.5,99.5 C 606.768,101.905 607.435,104.572 607.5,107.5C 605.96,105.162 605.294,102.495 605.5,99.5 Z"/></g>
<g><path style="opacity:1" fill="#879498" d="M 530.5,101.5 C 530.5,105.833 530.5,110.167 530.5,114.5C 528.265,114.795 526.265,114.461 524.5,113.5C 526.167,113.5 527.833,113.5 529.5,113.5C 529.183,109.298 529.517,105.298 530.5,101.5 Z"/></g>
<g><path style="opacity:1" fill="#8e9599" d="M 607.5,107.5 C 608.612,109.599 609.279,111.933 609.5,114.5C 608.833,113.833 608.167,113.167 607.5,112.5C 607.5,110.833 607.5,109.167 607.5,107.5 Z"/></g>
<g><path style="opacity:1" fill="#bca478" d="M 330.5,53.5 C 329.729,68.981 325.229,83.3144 317,96.5C 309.435,108.068 301.101,119.068 292,129.5C 281.932,142.107 277.599,156.441 279,172.5C 280.596,181.194 284.43,188.694 290.5,195C 285.586,201.067 280.919,207.234 276.5,213.5C 263.594,197.897 258.427,179.897 261,159.5C 263.413,145.344 269.079,132.677 278,121.5C 291.367,109.8 303.701,97.1332 315,83.5C 320.992,73.8467 326.159,63.8467 330.5,53.5 Z"/></g>
<g><path style="opacity:1" fill="#879192" d="M 609.5,115.5 C 610.612,117.599 611.279,119.933 611.5,122.5C 609.837,120.562 609.171,118.228 609.5,115.5 Z"/></g>
<g><path style="opacity:1" fill="#d71d0e" d="M 417.5,93.5 C 404.584,106.314 394.917,121.314 388.5,138.5C 382.93,140.635 377.263,142.468 371.5,144C 384.682,122.471 400.515,102.971 419,85.5C 418.641,88.1123 418.141,90.779 417.5,93.5 Z"/></g>
<g><path style="opacity:1" fill="#f5e7b8" d="M 330.5,53.5 C 326.159,63.8467 320.992,73.8467 315,83.5C 303.701,97.1332 291.367,109.8 278,121.5C 269.079,132.677 263.413,145.344 261,159.5C 258.427,179.897 263.594,197.897 276.5,213.5C 272.318,221.359 267.985,229.193 263.5,237C 260.101,237.546 256.768,237.213 253.5,236C 228.552,210.379 220.719,180.212 230,145.5C 235.432,132.391 243.599,121.225 254.5,112C 273.01,98.9113 291.344,85.578 309.5,72C 317.839,65.0027 324.673,56.8361 330,47.5C 330.495,49.4727 330.662,51.4727 330.5,53.5 Z"/></g>
<g><path style="opacity:1" fill="#d81d0d" d="M 520.5,139.5 C 513.252,139.753 505.919,140.92 498.5,143C 487.937,146.284 477.604,150.118 467.5,154.5C 462.042,152.271 456.708,149.771 451.5,147C 474.22,135.69 498.22,131.524 523.5,134.5C 522.74,136.36 521.74,138.027 520.5,139.5 Z"/></g>
<g><path style="opacity:1" fill="#7d0411" d="M 520.5,139.5 C 513.01,151.168 504.177,161.834 494,171.5C 485.663,164.923 476.829,159.257 467.5,154.5C 477.604,150.118 487.937,146.284 498.5,143C 505.919,140.92 513.252,139.753 520.5,139.5 Z"/></g>
<g><path style="opacity:1" fill="#252b2d" d="M 607.5,112.5 C 608.167,113.167 608.833,113.833 609.5,114.5C 609.5,114.833 609.5,115.167 609.5,115.5C 609.171,118.228 609.837,120.562 611.5,122.5C 614.394,132.973 616.394,143.64 617.5,154.5C 617.337,156.857 617.503,159.19 618,161.5C 618.383,162.056 618.883,162.389 619.5,162.5C 624.071,164.738 628.071,167.738 631.5,171.5C 630.883,171.611 630.383,171.944 630,172.5C 625.952,168.784 621.618,165.45 617,162.5C 614.283,145.749 611.116,129.082 607.5,112.5 Z"/></g>
<g><path style="opacity:1" fill="#d0dad9" d="M 617.5,154.5 C 618.371,157.003 619.037,159.67 619.5,162.5C 618.883,162.389 618.383,162.056 618,161.5C 617.503,159.19 617.337,156.857 617.5,154.5 Z"/></g>
<g><path style="opacity:1" fill="#004049" d="M 436.5,161.5 C 445.034,164.433 453.034,168.433 460.5,173.5C 440.871,186.815 431.371,205.482 432,229.5C 415.388,236.112 398.221,240.779 380.5,243.5C 386.346,217.302 398.346,194.469 416.5,175C 422.525,169.462 429.191,164.962 436.5,161.5 Z"/></g>
<g><path style="opacity:1" fill="#8f8679" d="M 336.5,268.5 C 335.602,269.158 334.602,269.824 333.5,270.5C 368.568,268.319 402.735,261.319 436,249.5C 437.03,249.164 437.53,248.497 437.5,247.5C 440.492,254.311 444.159,260.811 448.5,267C 429.873,273.073 410.873,277.74 391.5,281C 376.331,283.248 361.164,285.082 346,286.5C 346.002,282.14 346.502,277.807 347.5,273.5C 342.507,273.916 337.507,274.249 332.5,274.5C 329.784,285.411 327.451,296.411 325.5,307.5C 319.5,307.833 313.5,308.167 307.5,308.5C 312.099,264.008 327.265,223.674 353,187.5C 361.909,176.589 372.076,167.089 383.5,159C 384.738,158.31 384.738,157.81 383.5,157.5C 393.42,153.899 403.754,152.733 414.5,154C 389.591,164.242 371.091,181.409 359,205.5C 348.378,225.198 340.212,245.865 334.5,267.5C 334.957,268.298 335.624,268.631 336.5,268.5 Z"/></g>
<g><path style="opacity:1" fill="#f5e7b8" d="M 589.5,60.5 C 587.284,61.2026 585.451,62.5359 584,64.5C 575.456,77.1347 571.123,91.1347 571,106.5C 580.958,174.019 553.124,215.685 487.5,231.5C 482.731,219.628 482.398,207.628 486.5,195.5C 516.225,191.24 535.725,174.906 545,146.5C 547.681,131.963 549.348,117.296 550,102.5C 554.484,76.4793 569.318,59.8126 594.5,52.5C 594.833,52.8333 595.167,53.1667 595.5,53.5C 593.477,55.8528 591.477,58.1862 589.5,60.5 Z"/></g>
<g><path style="opacity:1" fill="#5f9089" d="M 436.5,161.5 C 429.191,164.962 422.525,169.462 416.5,175C 398.346,194.469 386.346,217.302 380.5,243.5C 374.352,245.141 368.018,246.474 361.5,247.5C 367.909,225.009 378.743,205.009 394,187.5C 405.796,174.857 419.962,166.19 436.5,161.5 Z"/></g>
<g><path style="opacity:1" fill="#5f918a" d="M 340.5,169.5 C 341.525,169.897 341.692,170.563 341,171.5C 322.341,193.131 308.008,217.464 298,244.5C 293.034,244.638 288.2,243.471 283.5,241C 289.352,227.455 296.852,214.955 306,203.5C 316.731,191.268 328.231,179.935 340.5,169.5 Z"/></g>
<g><path style="opacity:1" fill="#968c7d" d="M 469.5,191.5 C 470.873,191.343 472.207,191.51 473.5,192C 462.747,218.333 467.413,241.667 487.5,262C 489.833,263.667 492.167,265.333 494.5,267C 472.61,265.12 459.444,253.287 455,231.5C 454.333,224.167 454.333,216.833 455,209.5C 456.77,200.923 461.604,194.923 469.5,191.5 Z"/></g>
<g><path style="opacity:1" fill="#f8f4e0" d="M 383.5,157.5 C 384.738,157.81 384.738,158.31 383.5,159C 372.076,167.089 361.909,176.589 353,187.5C 327.265,223.674 312.099,264.008 307.5,308.5C 302.988,308.851 298.655,308.185 294.5,306.5C 297.087,295.898 299.421,285.231 301.5,274.5C 302.234,273.122 302.901,271.622 303.5,270C 292.669,266.251 282.336,261.418 272.5,255.5C 272.56,254.957 272.893,254.624 273.5,254.5C 283.204,258.957 293.204,262.624 303.5,265.5C 313.686,232.119 329.853,202.119 352,175.5C 360.333,165.749 370.833,159.749 383.5,157.5 Z"/></g>
<g><path style="opacity:1" fill="#7f0411" d="M 659.5,231.5 C 640.412,224.93 620.746,221.93 600.5,222.5C 603.777,217.602 606.777,212.602 609.5,207.5C 611.068,206.527 612.735,206.36 614.5,207C 630.36,213.597 645.693,221.263 660.5,230C 659.944,230.383 659.611,230.883 659.5,231.5 Z"/></g>
<g><path style="opacity:1" fill="#c5120c" d="M 659.5,231.5 C 659.611,230.883 659.944,230.383 660.5,230C 645.693,221.263 630.36,213.597 614.5,207C 612.735,206.36 611.068,206.527 609.5,207.5C 611.496,200.853 613.496,194.186 615.5,187.5C 636.146,200.988 653.979,217.322 669,236.5C 666.005,234.347 662.838,232.681 659.5,231.5 Z"/></g>
<g><path style="opacity:1" fill="#4a4e50" d="M 220.5,229.5 C 216.465,224.097 213.465,218.097 211.5,211.5C 212.117,211.389 212.617,211.056 213,210.5C 216.083,216.657 218.583,222.99 220.5,229.5 Z"/></g>
<g><path style="opacity:1" fill="#70777b" d="M 672.5,253.5 C 669.933,253.279 667.599,252.612 665.5,251.5C 667.144,251.714 668.644,251.38 670,250.5C 670.698,251.691 671.531,252.691 672.5,253.5 Z"/></g>
<g><path style="opacity:1" fill="#91887b" d="M 272.5,255.5 C 282.336,261.418 292.669,266.251 303.5,270C 302.901,271.622 302.234,273.122 301.5,274.5C 299.316,272.415 296.649,271.415 293.5,271.5C 292.94,276.073 291.607,280.406 289.5,284.5C 282.833,280.833 276.167,277.167 269.5,273.5C 269.167,272.667 268.833,271.833 268.5,271C 269.603,265.753 270.937,260.587 272.5,255.5 Z"/></g>
<g><path style="opacity:1" fill="#363b3e" d="M 701.5,254.5 C 703.625,257.088 704.958,260.088 705.5,263.5C 699.619,261.875 693.953,259.875 688.5,257.5C 689.822,257.67 690.989,257.337 692,256.5C 695.334,258.43 698.834,259.597 702.5,260C 701.373,258.247 700.373,256.413 699.5,254.5C 699.97,253.537 700.637,253.537 701.5,254.5 Z"/></g>
<g><path style="opacity:1" fill="#f2f2e9" d="M 437.5,247.5 C 437.53,248.497 437.03,249.164 436,249.5C 402.735,261.319 368.568,268.319 333.5,270.5C 334.602,269.824 335.602,269.158 336.5,268.5C 370.648,263.671 404.314,256.671 437.5,247.5 Z"/></g>
<g><path style="opacity:1" fill="#b90b0b" d="M 701.5,333.5 C 701.611,332.883 701.944,332.383 702.5,332C 676.517,306.054 646.85,286.221 613.5,272.5C 608.888,265.468 603.888,258.635 598.5,252C 613.623,256.725 627.956,263.391 641.5,272C 666.754,289.92 688.754,311.253 707.5,336C 705.48,335.549 703.48,334.716 701.5,333.5 Z"/></g>
<g><path style="opacity:1" fill="#7c0411" d="M 701.5,333.5 C 680.775,319.985 658.108,314.319 633.5,316.5C 627.356,301.548 620.689,286.882 613.5,272.5C 646.85,286.221 676.517,306.054 702.5,332C 701.944,332.383 701.611,332.883 701.5,333.5 Z"/></g>
<g><path style="opacity:1" fill="#004149" d="M 289.5,573.5 C 271.293,562.627 257.626,547.627 248.5,528.5C 292.97,539.39 328.137,525.723 354,487.5C 360.252,477.33 366.252,466.997 372,456.5C 377.117,449.048 382.617,441.882 388.5,435C 393.675,430.251 399.341,426.251 405.5,423C 417.263,418.371 429.097,413.871 441,409.5C 439.65,398.295 435.15,388.462 427.5,380C 428.167,379.333 428.833,379.333 429.5,380C 435.951,383.895 441.617,388.729 446.5,394.5C 447.328,389.868 447.828,385.202 448,380.5C 450.915,386.241 453.249,392.241 455,398.5C 465.48,383.385 464.813,368.718 453,354.5C 443.883,344.688 432.716,340.688 419.5,342.5C 425.757,347.252 431.59,352.585 437,358.5C 440.48,363.447 442.813,368.781 444,374.5C 430.845,362.002 415.345,357.502 397.5,361C 404.499,365.096 410.666,370.262 416,376.5C 419.071,382.444 417.904,382.611 412.5,377C 389.703,365.479 366.37,364.479 342.5,374C 334.929,376.785 327.595,380.119 320.5,384C 308.312,391.259 296.646,399.259 285.5,408C 273.105,408.855 260.772,410.188 248.5,412C 236.042,416.479 223.875,421.646 212,427.5C 209.076,427.293 206.91,425.96 205.5,423.5C 199.432,415.364 194.932,406.364 192,396.5C 187.493,392.133 183.993,387.133 181.5,381.5C 182.291,378.885 182.957,376.218 183.5,373.5C 186.742,384.58 193.242,393.247 203,399.5C 203.399,399.272 203.565,398.938 203.5,398.5C 204.156,397.378 204.489,396.045 204.5,394.5C 202.846,384.55 202.346,374.55 203,364.5C 204.267,360.131 206.433,356.297 209.5,353C 212.227,352.182 214.894,352.348 217.5,353.5C 213.123,360.667 211.79,368.333 213.5,376.5C 217.453,371.044 222.453,366.878 228.5,364C 240.864,359.7 253.197,356.2 265.5,353.5C 262.064,363.236 260.231,373.236 260,383.5C 262.696,379.32 265.53,375.32 268.5,371.5C 269.635,373.213 271.302,373.88 273.5,373.5C 270.345,380.13 267.512,386.797 265,393.5C 271.179,386.818 278.346,381.485 286.5,377.5C 288.684,379.664 290.017,382.331 290.5,385.5C 293.583,382.406 296.916,379.739 300.5,377.5C 300.369,378.239 300.536,378.906 301,379.5C 301.708,378.619 302.542,377.953 303.5,377.5C 316.894,374.294 323.728,365.961 324,352.5C 320.732,347.063 316.565,342.397 311.5,338.5C 318.765,335.286 325.265,330.953 331,325.5C 345.746,342.415 364.246,348.582 386.5,344C 391.372,342.897 396.038,341.23 400.5,339C 406.458,334.711 412.124,330.044 417.5,325C 424.083,321.085 431.083,318.251 438.5,316.5C 430.866,313.29 423.032,312.29 415,313.5C 414.333,312.833 414.333,312.167 415,311.5C 438.252,287.31 463.419,285.143 490.5,305C 495.015,309.348 499.349,313.848 503.5,318.5C 499.169,317.417 494.503,316.251 489.5,315C 475.445,311.718 462.112,313.551 449.5,320.5C 468.224,321.198 483.891,328.365 496.5,342C 491.481,341.447 486.481,340.447 481.5,339C 472.438,338.119 463.438,338.452 454.5,340C 471.421,347.253 482.255,359.753 487,377.5C 488.244,388.77 485.244,398.77 478,407.5C 470.967,415.204 462.8,421.37 453.5,426C 440.016,430.272 426.683,434.939 413.5,440C 396.333,450.5 382.5,464.333 372,481.5C 364.139,500.578 351.972,516.245 335.5,528.5C 345.163,529.366 354.83,529.533 364.5,529C 349.989,537.379 334.323,541.879 317.5,542.5C 324.797,554.291 334.797,563.124 347.5,569C 324.474,569.773 304.974,561.939 289,545.5C 290.628,560.574 297.795,572.408 310.5,581C 304.842,579.693 299.176,578.026 293.5,576C 291.934,575.392 290.6,574.558 289.5,573.5 Z"/></g>
<g><path style="opacity:1" fill="#7c0411" d="M 600.5,348.5 C 581.094,335.881 559.761,330.881 536.5,333.5C 536.665,330.482 536.498,327.482 536,324.5C 534.298,318.104 531.798,312.104 528.5,306.5C 528.369,305.761 528.536,305.094 529,304.5C 554.859,314.589 578.526,328.256 600,345.5C 600.483,346.448 600.649,347.448 600.5,348.5 Z"/></g>
<g><path style="opacity:1" fill="#62948d" d="M 226.5,297.5 C 229.152,303.21 231.152,309.377 232.5,316C 230.087,320.904 228.253,326.07 227,331.5C 222.517,327.696 220.684,322.863 221.5,317C 221.667,314.5 221.833,312 222,309.5C 223.605,305.515 225.105,301.515 226.5,297.5 Z"/></g>
<g><path style="opacity:1" fill="#0d393d" d="M 269.5,308.5 C 270.693,308.97 271.36,309.97 271.5,311.5C 270.2,317.637 267.366,322.971 263,327.5C 256.343,333.331 248.843,337.664 240.5,340.5C 239.351,336.908 238.351,333.241 237.5,329.5C 237.833,328.833 238.167,328.167 238.5,327.5C 245.469,324.016 252.469,320.516 259.5,317C 263.462,314.86 266.796,312.027 269.5,308.5 Z"/></g>
<g><path style="opacity:1" fill="#64686a" d="M 766.5,311.5 C 769.485,312.326 772.151,313.659 774.5,315.5C 770.693,316.226 768.026,314.893 766.5,311.5 Z"/></g>
<g><path style="opacity:1" fill="#f07802" d="M 395.5,299.5 C 396.675,299.281 397.675,299.614 398.5,300.5C 396.4,312.548 390.4,322.048 380.5,329C 370.238,332.453 360.238,331.786 350.5,327C 356.928,322.577 362.761,317.41 368,311.5C 370.501,316.506 373.501,321.173 377,325.5C 378.633,317.848 378.8,310.182 377.5,302.5C 383.732,302.128 389.732,301.128 395.5,299.5 Z"/></g>
<g><path style="opacity:1" fill="#0d393d" d="M 295.5,319.5 C 301.042,320.626 306.376,322.459 311.5,325C 292.482,336.005 272.148,343.005 250.5,346C 265.531,337.154 280.531,328.32 295.5,319.5 Z"/></g>
<g><path style="opacity:1" fill="#b70b0b" d="M 600.5,348.5 C 600.649,347.448 600.483,346.448 600,345.5C 578.526,328.256 554.859,314.589 529,304.5C 528.536,305.094 528.369,305.761 528.5,306.5C 525.704,303.203 522.704,300.036 519.5,297C 557.932,298.705 586.265,316.371 604.5,350C 602.934,350.3 601.601,349.8 600.5,348.5 Z"/></g>
<g><path style="opacity:1" fill="#5e918a" d="M 203.5,398.5 C 203.565,398.938 203.399,399.272 203,399.5C 193.242,393.247 186.742,384.58 183.5,373.5C 179.619,358.303 183.953,346.136 196.5,337C 198.902,336.186 201.235,336.353 203.5,337.5C 204.706,340.079 206.039,342.579 207.5,345C 193.226,354.575 189.393,367.408 196,383.5C 198.529,388.558 201.029,393.558 203.5,398.5 Z"/></g>
<g><path style="opacity:1" fill="#004149" d="M 573.5,252.5 C 575.017,252.511 576.184,253.177 577,254.5C 624.551,317.695 643.551,388.695 634,467.5C 631.677,451.528 626.01,436.861 617,423.5C 613.633,419.797 609.966,416.464 606,413.5C 607.38,433.456 607.713,453.456 607,473.5C 606.384,484.763 604.384,495.763 601,506.5C 585.249,515.959 569.416,525.293 553.5,534.5C 553.167,534.167 552.833,533.833 552.5,533.5C 559.164,514.862 559.164,496.196 552.5,477.5C 547.336,507.157 535.169,533.49 516,556.5C 508.809,564.689 501.309,572.523 493.5,580C 484.167,580.667 474.833,580.667 465.5,580C 475.956,566.542 486.789,553.376 498,540.5C 513.355,520.799 525.355,499.132 534,475.5C 537.583,463.001 540.416,450.335 542.5,437.5C 556.628,453.775 564.128,472.775 565,494.5C 583.115,469.04 590.115,440.706 586,409.5C 583.062,391.855 577.229,375.189 568.5,359.5C 568.833,359.167 569.167,358.833 569.5,358.5C 586.187,364.674 601.521,373.174 615.5,384C 618.683,387.015 621.683,390.182 624.5,393.5C 625.414,384.459 624.914,375.459 623,366.5C 614.263,326.351 595.596,291.685 567,262.5C 566.333,261.5 566.333,260.5 567,259.5C 569.372,257.297 571.539,254.963 573.5,252.5 Z"/></g>
<g><path style="opacity:1" fill="#5f928b" d="M 303.5,377.5 C 302.542,377.953 301.708,378.619 301,379.5C 300.536,378.906 300.369,378.239 300.5,377.5C 304.217,371.298 304.217,365.131 300.5,359C 297.5,358.333 294.5,358.333 291.5,359C 285.287,363.602 279.287,368.435 273.5,373.5C 271.302,373.88 269.635,373.213 268.5,371.5C 274.291,364.538 280.291,357.705 286.5,351C 291.478,346.895 297.145,345.229 303.5,346C 308.143,348.615 310.476,352.615 310.5,358C 309.643,365.075 307.309,371.575 303.5,377.5 Z"/></g>
<g><path style="opacity:1" fill="#021820" d="M 300.5,377.5 C 296.916,379.739 293.583,382.406 290.5,385.5C 290.017,382.331 288.684,379.664 286.5,377.5C 278.346,381.485 271.179,386.818 265,393.5C 267.512,386.797 270.345,380.13 273.5,373.5C 279.287,368.435 285.287,363.602 291.5,359C 294.5,358.333 297.5,358.333 300.5,359C 304.217,365.131 304.217,371.298 300.5,377.5 Z"/></g>
<g><path style="opacity:1" fill="#00414a" d="M 504.5,358.5 C 513.479,373.304 515.979,389.304 512,406.5C 506.926,421.908 496.759,432.408 481.5,438C 468.99,441.962 456.324,444.962 443.5,447C 454.907,442.13 465.907,436.463 476.5,430C 501.584,412.332 510.918,388.499 504.5,358.5 Z"/></g>
<g><path style="opacity:1" fill="#b80b0b" d="M 709.5,466.5 C 709.663,468.857 709.497,471.19 709,473.5C 702.841,429.164 682.674,392.831 648.5,364.5C 646.328,358.163 644.495,351.83 643,345.5C 674.139,366.684 694.472,395.684 704,432.5C 707.192,443.627 709.026,454.96 709.5,466.5 Z"/></g>
<g><path style="opacity:1" fill="#7c0411" d="M 648.5,364.5 C 682.674,392.831 702.841,429.164 709,473.5C 709.497,471.19 709.663,468.857 709.5,466.5C 710.654,472.987 710.821,479.654 710,486.5C 699.864,456.716 681.864,433.05 656,415.5C 655.216,398.223 652.716,381.223 648.5,364.5 Z"/></g>
<g><path style="opacity:1" fill="#b90b0b" d="M 566.5,433.5 C 567.097,433.265 567.43,432.765 567.5,432C 565.085,423.674 562.252,415.508 559,407.5C 549.699,391.217 540.032,375.217 530,359.5C 529.092,357.561 527.592,356.561 525.5,356.5C 524.972,355.153 524.805,353.819 525,352.5C 548.913,365.963 563.246,386.296 568,413.5C 569.511,424.122 569.844,434.789 569,445.5C 568.673,441.371 567.84,437.371 566.5,433.5 Z"/></g>
<g><path style="opacity:1" fill="#7c0411" d="M 525.5,356.5 C 527.592,356.561 529.092,357.561 530,359.5C 540.032,375.217 549.699,391.217 559,407.5C 562.252,415.508 565.085,423.674 567.5,432C 567.43,432.765 567.097,433.265 566.5,433.5C 558.321,417.318 546.321,404.651 530.5,395.5C 529.614,385.505 528.781,375.505 528,365.5C 527.261,362.454 526.428,359.454 525.5,356.5 Z"/></g>
<g><path style="opacity:1" fill="#d74e01" d="M 365.5,386.5 C 374.608,386.057 383.608,386.557 392.5,388C 385.373,393.459 378.539,399.292 372,405.5C 370.629,398.926 367.796,393.093 363.5,388C 364.416,387.722 365.082,387.222 365.5,386.5 Z"/></g>
<g><path style="opacity:1" fill="#60928b" d="M 181.5,381.5 C 183.993,387.133 187.493,392.133 192,396.5C 194.932,406.364 199.432,415.364 205.5,423.5C 193.049,417.859 185.549,408.193 183,394.5C 181.925,390.23 181.425,385.897 181.5,381.5 Z"/></g>
<g><path style="opacity:1" fill="#ef7102" d="M 347.5,392.5 C 348.239,392.369 348.906,392.536 349.5,393C 344.632,400.893 340.132,409.059 336,417.5C 336.025,412.201 334.858,407.201 332.5,402.5C 333.313,401.186 334.313,400.019 335.5,399C 339.722,397.059 343.722,394.892 347.5,392.5 Z"/></g>
<g><path style="opacity:1" fill="#ef7903" d="M 301.5,417.5 C 303.527,417.338 305.527,417.505 307.5,418C 304.171,430.497 297.671,440.997 288,449.5C 288.849,444.118 289.349,438.618 289.5,433C 289.67,428.675 289.003,424.508 287.5,420.5C 292.299,419.49 296.966,418.49 301.5,417.5 Z"/></g>
<g><path style="opacity:1" fill="#db4f01" d="M 247.5,428.5 C 251.5,428.5 255.5,428.5 259.5,428.5C 260.606,439.487 258.106,449.487 252,458.5C 251.94,448.246 249.107,438.912 243.5,430.5C 244.949,429.828 246.282,429.161 247.5,428.5 Z"/></g>
<g><path style="opacity:1" fill="#7c0511" d="M 334.5,464.5 C 334.565,464.062 334.399,463.728 334,463.5C 319.763,464.047 305.93,466.714 292.5,471.5C 302.789,455.377 315.956,442.044 332,431.5C 332.333,434.167 332.667,436.833 333,439.5C 334.54,435.581 336.707,432.081 339.5,429C 349.105,422.131 359.772,419.131 371.5,420C 358,428.167 347.167,439 339,452.5C 337.151,456.503 335.651,460.503 334.5,464.5 Z"/></g>
<g><path style="opacity:1" fill="#d44e02" d="M 204.5,439.5 C 211.334,441.283 218.334,441.95 225.5,441.5C 223.651,447.705 223.151,454.038 224,460.5C 224.45,462.519 225.283,464.352 226.5,466C 214.78,461.089 207.447,452.256 204.5,439.5 Z"/></g>
<g><path style="opacity:1" fill="#b90c0c" d="M 334.5,464.5 C 331.753,474.307 326.253,482.307 318,488.5C 314.419,483.672 311.085,478.672 308,473.5C 303.84,482.314 300.673,491.481 298.5,501C 297.728,502.221 296.728,503.221 295.5,504C 287.631,506.634 279.631,507.134 271.5,505.5C 273.473,504.194 275.139,502.527 276.5,500.5C 283.101,491.641 288.434,481.974 292.5,471.5C 305.93,466.714 319.763,464.047 334,463.5C 334.399,463.728 334.565,464.062 334.5,464.5 Z"/></g>
<g><path style="opacity:1" fill="#7d0511" d="M 656.5,460.5 C 667.96,481.616 673.126,504.283 672,528.5C 662.768,523.901 652.934,521.568 642.5,521.5C 649.84,501.803 654.507,481.47 656.5,460.5 Z"/></g>
<g><path style="opacity:1" fill="#7e0511" d="M 276.5,500.5 C 275.139,502.527 273.473,504.194 271.5,505.5C 263.257,503.047 255.923,499.047 249.5,493.5C 258.221,488.071 264.054,480.405 267,470.5C 268.489,465.543 269.822,460.543 271,455.5C 272.255,465.093 272.921,474.76 273,484.5C 274.204,489.965 275.37,495.299 276.5,500.5 Z"/></g>
<g><path style="opacity:1" fill="#7e0511" d="M 509.5,464.5 C 508.764,473.056 506.264,481.39 502,489.5C 475.185,503.329 446.685,510.162 416.5,510C 428.74,499.935 433.906,487.102 432,471.5C 437.73,474.539 442.73,478.539 447,483.5C 447.988,486.424 448.654,489.424 449,492.5C 458.712,484.289 467.545,475.289 475.5,465.5C 483.329,469.505 490.163,474.838 496,481.5C 501.094,476.246 505.594,470.58 509.5,464.5 Z"/></g>
<g><path style="opacity:1" fill="#d94e01" d="M 309.5,490.5 C 312.878,496.717 317.544,501.884 323.5,506C 316.812,510.733 309.479,512.9 301.5,512.5C 304.18,505.146 306.847,497.812 309.5,490.5 Z"/></g>
<g><path style="opacity:1" fill="#e75a01" d="M 235.5,492.5 C 241.449,498.276 248.116,503.109 255.5,507C 251.509,507.412 248.342,509.246 246,512.5C 239.601,507.369 236.101,500.702 235.5,492.5 Z"/></g>
<g><path style="opacity:1" fill="#454a4d" d="M 753.5,520.5 C 752.406,526.439 750.739,532.106 748.5,537.5C 748.67,536.178 748.337,535.011 747.5,534C 748.882,530.979 749.882,527.813 750.5,524.5C 751.172,522.84 752.172,521.507 753.5,520.5 Z"/></g>
<g><path style="opacity:1" fill="#60938c" d="M 248.5,528.5 C 257.626,547.627 271.293,562.627 289.5,573.5C 271.432,568.395 257.265,558.062 247,542.5C 244.572,537.55 242.739,532.383 241.5,527C 241.833,526.5 242.167,526 242.5,525.5C 244.604,526.519 246.604,527.519 248.5,528.5 Z"/></g>
<g><path style="opacity:1" fill="#7d0511" d="M 494.5,508.5 C 495.043,508.56 495.376,508.893 495.5,509.5C 493.667,513.167 491.833,516.833 490,520.5C 480.333,534.167 470.667,547.833 461,561.5C 457.761,566.876 455.095,572.542 453,578.5C 452.516,576.087 452.85,573.754 454,571.5C 458.435,563.357 461.602,555.024 463.5,546.5C 433.675,554.425 403.342,558.591 372.5,559C 381.538,551.63 389.538,543.296 396.5,534C 424.465,533.506 451.465,528.173 477.5,518C 483.552,515.313 489.219,512.146 494.5,508.5 Z"/></g>
<g><path style="opacity:1" fill="#7d0511" d="M 609.5,538.5 C 627.036,537.795 644.369,539.295 661.5,543C 671.506,545.836 680.506,550.502 688.5,557C 680.616,555.464 672.616,554.13 664.5,553C 627.965,552.4 593.965,561.4 562.5,580C 548.155,580.833 533.822,580.666 519.5,579.5C 545.288,556.606 575.288,542.94 609.5,538.5 Z"/></g>
<g><path style="opacity:1" fill="#373b3d" d="M 139.5,533.5 C 140.75,533.577 141.583,534.244 142,535.5C 144.576,544.897 147.743,554.064 151.5,563C 150.663,564.011 150.33,565.178 150.5,566.5C 146.261,555.784 142.595,544.784 139.5,533.5 Z"/></g>
<g><path style="opacity:1" fill="#000002" d="M 736.5,571.5 C 736.5,571.833 736.5,572.167 736.5,572.5C 778.331,573.333 820.331,573.833 862.5,574C 820.168,574.5 777.835,574.667 735.5,574.5C 735.16,572.452 735.493,571.452 736.5,571.5 Z"/></g>
<g><path style="opacity:1" fill="#434649" d="M 36.5,580.5 C 38.4191,585.003 39.7525,589.67 40.5,594.5C 37.9409,590.388 35.6076,586.054 33.5,581.5C 34.325,580.614 35.325,580.281 36.5,580.5 Z"/></g>
<g><path style="opacity:1" fill="#f9f9e3" d="M 280.5,605.5 C 277.653,611.206 274.32,616.539 270.5,621.5C 272.762,616.48 275.428,611.647 278.5,607C 259.5,606.333 240.5,606.333 221.5,607C 222.252,607.671 222.586,608.504 222.5,609.5C 221.163,608.685 220.163,607.518 219.5,606C 239.831,605.5 260.164,605.333 280.5,605.5 Z"/></g>
<g><path style="opacity:1" fill="#f4ecc5" d="M 715.5,607.5 C 715.414,606.504 715.748,605.671 716.5,605C 700.5,604.333 684.5,604.333 668.5,605C 667.663,606.011 667.33,607.178 667.5,608.5C 669.858,607.822 672.025,607.488 674,607.5C 674.72,609.112 674.554,610.612 673.5,612C 676.73,613.724 677.064,615.724 674.5,618C 676.993,619.583 676.826,621.083 674,622.5C 673.016,620.205 672.183,620.539 671.5,623.5C 672.09,624.799 673.09,625.632 674.5,626C 672.838,658.087 672.338,690.253 673,722.5C 673.333,721.833 673.667,721.167 674,720.5C 675.473,720.132 676.973,720.632 678.5,722C 678.167,722.333 677.833,722.667 677.5,723C 678.701,723.903 679.535,725.069 680,726.5C 680.622,731.263 680.455,732.263 679.5,729.5C 676.402,729.587 676.068,729.087 678.5,728C 677.874,727.25 677.374,726.416 677,725.5C 676.323,727.689 675.156,728.022 673.5,726.5C 673.167,727.167 672.833,727.833 672.5,728.5C 671.905,735.318 671.239,741.985 670.5,748.5C 671.109,707.5 671.276,666.5 671,625.5C 666.5,618.333 662,611.167 657.5,604C 677.833,603.333 698.167,603.333 718.5,604C 717.837,605.518 716.837,606.685 715.5,607.5 Z"/></g>
<g><path style="opacity:1" fill="#f4e7b7" d="M 427.5,605.5 C 424.309,617.909 420.809,630.242 417,642.5C 412.698,639.933 408.198,637.766 403.5,636C 391.167,635.333 378.833,635.333 366.5,636C 365.944,636.383 365.611,636.883 365.5,637.5C 360.566,640.978 355.566,644.478 350.5,648C 378.352,671.692 405.352,696.192 431.5,721.5C 430.781,723.728 429.448,725.561 427.5,727C 410.642,741.031 393.975,755.198 377.5,769.5C 353.167,769.5 328.833,769.5 304.5,769.5C 310.029,756.108 316.363,743.108 323.5,730.5C 324.314,728.727 325.648,728.227 327.5,729C 338.186,733.45 348.686,738.283 359,743.5C 368.257,736.454 377.424,729.287 386.5,722C 356.611,694.941 326.277,668.441 295.5,642.5C 314.124,629.848 333.124,617.681 352.5,606C 377.498,605.5 402.498,605.333 427.5,605.5 Z"/></g>
<g><path style="opacity:1" fill="#ecedd1" d="M 207.5,645.5 C 208.435,643.139 209.768,640.972 211.5,639C 184.258,626.364 156.258,615.697 127.5,607C 111.167,606.333 94.8333,606.333 78.5,607C 82.4361,613.031 85.1028,619.531 86.5,626.5C 81.5015,665.824 76.5015,705.157 71.5,744.5C 71.4146,746.333 70.7479,747.666 69.5,748.5C 74.5407,707.468 79.8741,666.468 85.5,625.5C 83.1871,618.706 80.1871,612.206 76.5,606C 93.8333,605.333 111.167,605.333 128.5,606C 157.022,614.729 184.855,625.229 212,637.5C 213.257,637.85 213.591,638.517 213,639.5C 211.383,641.763 209.55,643.763 207.5,645.5 Z"/></g>
<g><path style="opacity:1" fill="#f4e7b7" d="M 636.5,685.5 C 634.246,686.415 632.246,687.748 630.5,689.5C 609.918,708.58 589.751,728.247 570,748.5C 569.536,749.094 569.369,749.761 569.5,750.5C 565.5,755.167 561.167,759.5 556.5,763.5C 555.167,764.5 553.833,765.5 552.5,766.5C 530.49,766.833 508.49,766.5 486.5,765.5C 488.569,760.127 490.736,754.793 493,749.5C 493.167,746.167 493.333,742.833 493.5,739.5C 492.903,701.434 492.237,664.101 491.5,627.5C 487.008,620.522 483.008,613.188 479.5,605.5C 495.995,604.338 512.662,604.172 529.5,605C 570.273,625.218 610.273,646.718 649.5,669.5C 648.667,671.167 647.833,672.833 647,674.5C 643.296,678.036 639.796,681.702 636.5,685.5 Z"/></g>
<g><path style="opacity:1" fill="#818f94" d="M 57.5,629.5 C 59.4611,631.32 59.7944,633.32 58.5,635.5C 57.6586,633.621 57.3253,631.621 57.5,629.5 Z"/></g>
<g><path style="opacity:1" fill="#0d1518" d="M 280.5,605.5 C 281.043,605.56 281.376,605.893 281.5,606.5C 276.747,614.338 272.247,622.338 268,630.5C 266.582,669.824 266.248,709.158 267,748.5C 270.113,753.729 272.947,759.062 275.5,764.5C 274.833,764.167 274.167,763.833 273.5,763.5C 272,759.827 270,756.494 267.5,753.5C 267.205,751.577 266.372,749.91 265,748.5C 264.877,709.168 265.044,669.834 265.5,630.5C 267.924,627.992 269.59,624.992 270.5,621.5C 274.32,616.539 277.653,611.206 280.5,605.5 Z"/></g>
<g><path style="opacity:1" fill="#f2f2d6" d="M 427.5,605.5 C 428.239,605.369 428.906,605.536 429.5,606C 425.437,618.748 421.604,631.581 418,644.5C 413.032,641.599 407.865,639.099 402.5,637C 390.121,636.207 377.788,636.373 365.5,637.5C 365.611,636.883 365.944,636.383 366.5,636C 378.833,635.333 391.167,635.333 403.5,636C 408.198,637.766 412.698,639.933 417,642.5C 420.809,630.242 424.309,617.909 427.5,605.5 Z"/></g>
<g><path style="opacity:1" fill="#021921" d="M 523.5,639.5 C 548.627,650.401 573.293,663.068 597.5,677.5C 579.317,696.516 561.317,715.682 543.5,735C 536.842,735.5 530.175,735.666 523.5,735.5C 524.651,703.337 524.651,671.337 523.5,639.5 Z"/></g>
<g><path style="opacity:1" fill="#f1ebc8" d="M 265.5,630.5 C 265.044,669.834 264.877,709.168 265,748.5C 266.372,749.91 267.205,751.577 267.5,753.5C 266.115,752.426 264.949,751.093 264,749.5C 263.667,722.167 263.333,694.833 263,667.5C 261.32,668.603 259.82,668.27 258.5,666.5C 258.755,664.657 258.922,662.657 259,660.5C 261.096,659.285 260.929,658.451 258.5,658C 259.328,657.085 260.328,656.419 261.5,656C 259.122,655.026 259.456,654.359 262.5,654C 263.126,653.25 263.626,652.416 264,651.5C 264.171,644.321 264.671,637.321 265.5,630.5 Z"/></g>
<g><path style="opacity:1" fill="#404547" d="M 820.5,649.5 C 817,656.506 813,663.173 808.5,669.5C 810.154,663.854 812.654,658.521 816,653.5C 817.049,651.616 818.549,650.282 820.5,649.5 Z"/></g>
<g><path style="opacity:1" fill="#020407" d="M 479.5,605.5 C 483.008,613.188 487.008,620.522 491.5,627.5C 490.552,655.148 490.219,682.815 490.5,710.5C 489.604,689.846 489.104,661.846 489,626.5C 485.23,619.96 481.73,613.293 478.5,606.5C 478.624,605.893 478.957,605.56 479.5,605.5 Z"/></g>
<g><path style="opacity:1" fill="#eeeed1" d="M 232.5,747.5 C 233.358,707.503 233.524,667.503 233,627.5C 232.487,626.473 231.987,625.473 231.5,624.5C 231.435,624.062 231.601,623.728 232,623.5C 232.75,624.126 233.584,624.626 234.5,625C 233.346,625.914 233.513,626.747 235,627.5C 234.869,661.828 234.536,696.161 234,730.5C 233.827,736.348 233.327,742.015 232.5,747.5 Z"/></g>
<g><path style="opacity:1" fill="#f4e7b7" d="M 207.5,645.5 C 185.893,675.607 159.559,700.774 128.5,721C 121.203,725.232 113.703,729.065 106,732.5C 104.073,747.439 102.739,762.439 102,777.5C 86.3272,797.223 66.8272,811.39 43.5,820C 55.1011,807.631 62.6011,793.131 66,776.5C 67.4951,767.198 68.6618,757.865 69.5,748.5C 70.7479,747.666 71.4146,746.333 71.5,744.5C 76.5015,705.157 81.5015,665.824 86.5,626.5C 85.1028,619.531 82.4361,613.031 78.5,607C 94.8333,606.333 111.167,606.333 127.5,607C 156.258,615.697 184.258,626.364 211.5,639C 209.768,640.972 208.435,643.139 207.5,645.5 Z"/></g>
<g><path style="opacity:1" fill="#021820" d="M 120.5,636.5 C 136.668,640.749 152.335,646.416 167.5,653.5C 148.846,671.987 130.012,690.321 111,708.5C 112.994,684.371 116.161,660.371 120.5,636.5 Z"/></g>
<g><path style="opacity:1" fill="#f4e7b8" d="M 670.5,748.5 C 671.239,741.985 671.905,735.318 672.5,728.5C 672.833,727.833 673.167,727.167 673.5,726.5C 675.156,728.022 676.323,727.689 677,725.5C 677.374,726.416 677.874,727.25 678.5,728C 676.068,729.087 676.402,729.587 679.5,729.5C 680.455,732.263 680.622,731.263 680,726.5C 679.535,725.069 678.701,723.903 677.5,723C 677.833,722.667 678.167,722.333 678.5,722C 676.973,720.632 675.473,720.132 674,720.5C 673.667,721.167 673.333,721.833 673,722.5C 672.338,690.253 672.838,658.087 674.5,626C 673.09,625.632 672.09,624.799 671.5,623.5C 672.183,620.539 673.016,620.205 674,622.5C 676.826,621.083 676.993,619.583 674.5,618C 677.064,615.724 676.73,613.724 673.5,612C 674.554,610.612 674.72,609.112 674,607.5C 672.025,607.488 669.858,607.822 667.5,608.5C 667.33,607.178 667.663,606.011 668.5,605C 684.5,604.333 700.5,604.333 716.5,605C 715.748,605.671 715.414,606.504 715.5,607.5C 713.421,611.993 711.088,616.326 708.5,620.5C 707.196,621.987 706.03,623.654 705,625.5C 704.333,646.5 704.333,667.5 705,688.5C 707.04,686.63 708.873,684.63 710.5,682.5C 729.219,662.279 747.052,641.279 764,619.5C 764.667,618.167 764.667,616.833 764,615.5C 762.337,611.504 760.171,607.837 757.5,604.5C 777.167,603.167 796.833,603.167 816.5,604.5C 796.302,633.369 774.302,660.869 750.5,687C 783.944,727.558 814.944,769.891 843.5,814C 829.805,809.159 816.472,803.159 803.5,796C 776.005,767.12 749.339,737.62 723.5,707.5C 717.053,712.479 710.887,717.812 705,723.5C 703.632,732.13 703.298,740.797 704,749.5C 707.581,756.33 711.414,762.997 715.5,769.5C 696.175,770.666 676.842,770.833 657.5,770C 661.985,762.853 666.318,755.686 670.5,748.5 Z"/></g>
<g><path style="opacity:1" fill="#00040a" d="M 708.5,620.5 C 708.938,620.435 709.272,620.601 709.5,621C 708.333,622.833 707.167,624.667 706,626.5C 705.753,645.837 706.086,665.17 707,684.5C 707.816,683.177 708.983,682.511 710.5,682.5C 708.873,684.63 707.04,686.63 705,688.5C 704.333,667.5 704.333,646.5 705,625.5C 706.03,623.654 707.196,621.987 708.5,620.5 Z"/></g>
<g><path style="opacity:1" fill="#f5f4d8" d="M 630.5,689.5 C 610.5,710.167 590.167,730.5 569.5,750.5C 569.369,749.761 569.536,749.094 570,748.5C 589.751,728.247 609.918,708.58 630.5,689.5 Z"/></g>
<g><path style="opacity:1" fill="#01060b" d="M 636.5,685.5 C 610.702,711.799 584.702,737.965 558.5,764C 557.563,764.692 556.897,764.525 556.5,763.5C 561.167,759.5 565.5,755.167 569.5,750.5C 590.167,730.5 610.5,710.167 630.5,689.5C 632.246,687.748 634.246,686.415 636.5,685.5 Z"/></g>
<g><path style="opacity:1" fill="#f4e6b6" d="M 270.5,621.5 C 269.59,624.992 267.924,627.992 265.5,630.5C 264.671,637.321 264.171,644.321 264,651.5C 263.626,652.416 263.126,653.25 262.5,654C 259.456,654.359 259.122,655.026 261.5,656C 260.328,656.419 259.328,657.085 258.5,658C 260.929,658.451 261.096,659.285 259,660.5C 258.922,662.657 258.755,664.657 258.5,666.5C 259.82,668.27 261.32,668.603 263,667.5C 263.333,694.833 263.667,722.167 264,749.5C 264.949,751.093 266.115,752.426 267.5,753.5C 270,756.494 272,759.827 273.5,763.5C 273.539,764.583 273.873,765.583 274.5,766.5C 257.176,767.666 239.843,767.833 222.5,767C 223.914,765.007 224.914,762.84 225.5,760.5C 227.403,755.932 229.736,751.598 232.5,747.5C 233.327,742.015 233.827,736.348 234,730.5C 234.536,696.161 234.869,661.828 235,627.5C 233.513,626.747 233.346,625.914 234.5,625C 233.584,624.626 232.75,624.126 232,623.5C 231.601,623.728 231.435,624.062 231.5,624.5C 227.749,620.005 224.749,615.005 222.5,609.5C 222.586,608.504 222.252,607.671 221.5,607C 240.5,606.333 259.5,606.333 278.5,607C 275.428,611.647 272.762,616.48 270.5,621.5 Z"/></g>
<g><path style="opacity:1" fill="#f3e8bb" d="M 453.5,739.5 C 460.379,743.374 466.045,748.707 470.5,755.5C 466.041,761.464 460.541,766.131 454,769.5C 451.61,768.722 449.443,767.555 447.5,766C 444.536,762.034 441.203,758.367 437.5,755C 443.337,750.33 448.67,745.163 453.5,739.5 Z"/></g>
<g><path style="opacity:0.169" fill="#e3e7e6" d="M 42.5,762.5 C 42.6633,764.857 42.4966,767.19 42,769.5C 41.6174,770.056 41.1174,770.389 40.5,770.5C 40.9628,767.67 41.6295,765.003 42.5,762.5 Z"/></g>
<g><path style="opacity:1" fill="#dadcc1" d="M 552.5,766.5 C 530.191,768.49 507.525,769.156 484.5,768.5C 486.695,761.753 489.195,755.086 492,748.5C 492.135,735.665 491.635,722.998 490.5,710.5C 490.219,682.815 490.552,655.148 491.5,627.5C 492.237,664.101 492.903,701.434 493.5,739.5C 493.333,742.833 493.167,746.167 493,749.5C 490.736,754.793 488.569,760.127 486.5,765.5C 508.49,766.5 530.49,766.833 552.5,766.5 Z"/></g>
<g><path style="opacity:1" fill="#fcfce7" d="M 225.5,760.5 C 224.914,762.84 223.914,765.007 222.5,767C 239.843,767.833 257.176,767.666 274.5,766.5C 273.873,765.583 273.539,764.583 273.5,763.5C 274.167,763.833 274.833,764.167 275.5,764.5C 275.557,765.609 275.89,766.609 276.5,767.5C 258.007,768.497 239.341,768.83 220.5,768.5C 221.68,765.46 223.347,762.794 225.5,760.5 Z"/></g>
<g><path style="opacity:1" fill="#7f8574" d="M 276.5,767.5 C 277.043,767.56 277.376,767.893 277.5,768.5C 258.338,769.828 239.338,769.828 220.5,768.5C 239.341,768.83 258.007,768.497 276.5,767.5 Z"/></g>
<g><path style="opacity:1" fill="#040709" d="M 323.5,730.5 C 316.363,743.108 310.029,756.108 304.5,769.5C 328.833,769.5 353.167,769.5 377.5,769.5C 353.006,770.498 328.339,770.831 303.5,770.5C 304.116,765.589 305.616,760.923 308,756.5C 312.255,748.991 316.255,741.324 320,733.5C 320.759,731.937 321.926,730.937 323.5,730.5 Z"/></g>
<g><path style="opacity:1" fill="#364542" d="M 423.5,803.5 C 439.992,802.503 456.658,802.17 473.5,802.5C 473.672,803.492 473.338,804.158 472.5,804.5C 456.342,803.504 440.009,803.17 423.5,803.5 Z"/></g>
<g><path style="opacity:1" fill="#768578" d="M 720.5,804.5 C 725.68,803.185 731.014,803.185 736.5,804.5C 736.376,805.107 736.043,805.44 735.5,805.5C 730.695,804.513 725.695,804.179 720.5,804.5 Z"/></g>
<g><path style="opacity:1" fill="#f4f4d6" d="M 158.5,812.5 C 158.494,811.583 159.494,811.083 161.5,811C 168.492,810.5 175.492,810.334 182.5,810.5C 182.5,808.833 182.5,807.167 182.5,805.5C 170.462,805.228 158.462,805.562 146.5,806.5C 146.832,824.577 146.499,841.911 145.5,858.5C 145.667,841.497 145.5,824.497 145,807.5C 144.626,806.584 144.126,805.75 143.5,805C 156.829,804.5 170.163,804.333 183.5,804.5C 183.5,807.167 183.5,809.833 183.5,812.5C 175.167,812.5 166.833,812.5 158.5,812.5 Z"/></g>
<g><path style="opacity:1" fill="#e4e6d2" d="M 569.5,805.5 C 570.209,804.596 571.209,804.263 572.5,804.5C 583.5,804.5 594.5,804.5 605.5,804.5C 605.5,807.5 605.5,810.5 605.5,813.5C 597.833,813.5 590.167,813.5 582.5,813.5C 582.5,818.167 582.5,822.833 582.5,827.5C 581.176,822.433 581.176,817.266 582.5,812C 589.826,811.5 597.159,811.334 604.5,811.5C 604.5,809.5 604.5,807.5 604.5,805.5C 592.833,805.5 581.167,805.5 569.5,805.5 Z"/></g>
<g><path style="opacity:1" fill="#f4e8b9" d="M 401.5,805.5 C 406.801,809.466 411.801,813.8 416.5,818.5C 410.858,823.137 405.191,827.803 399.5,832.5C 406.683,840.516 414.349,848.016 422.5,855C 418.655,857.242 414.655,858.076 410.5,857.5C 401.813,849.145 393.146,840.812 384.5,832.5C 384.5,832.167 384.5,831.833 384.5,831.5C 389.957,826.933 395.623,822.6 401.5,818.5C 396.448,812.965 390.114,810.965 382.5,812.5C 382.5,813.833 382.5,815.167 382.5,816.5C 381.505,829.323 381.171,842.323 381.5,855.5C 377.818,855.665 374.152,855.499 370.5,855C 371.492,838.244 371.825,821.411 371.5,804.5C 381.552,804.216 391.552,804.55 401.5,805.5 Z"/></g>
<g><path style="opacity:1" fill="#f2e6b8" d="M 158.5,812.5 C 158.334,818.176 158.501,823.843 159,829.5C 166.067,828.267 173.233,827.6 180.5,827.5C 180.5,830.5 180.5,833.5 180.5,836.5C 172.833,836.5 165.167,836.5 157.5,836.5C 157.472,841.862 157.806,847.195 158.5,852.5C 166.5,852.5 174.5,852.5 182.5,852.5C 182.5,855.167 182.5,857.833 182.5,860.5C 170.286,860.386 158.12,861.052 146,862.5C 143.168,861.733 143.001,860.399 145.5,858.5C 146.499,841.911 146.832,824.577 146.5,806.5C 158.462,805.562 170.462,805.228 182.5,805.5C 182.5,807.167 182.5,808.833 182.5,810.5C 175.492,810.334 168.492,810.5 161.5,811C 159.494,811.083 158.494,811.583 158.5,812.5 Z"/></g>
<g><path style="opacity:1" fill="#f2e8bd" d="M 247.5,803.5 C 257.839,803.334 268.172,803.5 278.5,804C 283.789,807.62 288.789,811.62 293.5,816C 286.167,823.333 278.833,830.667 271.5,838C 268.118,838.309 265.451,836.976 263.5,834C 269.015,828.652 274.348,823.152 279.5,817.5C 274.693,813.119 269.026,811.119 262.5,811.5C 262.333,825.504 262.5,839.504 263,853.5C 263.465,854.931 264.299,856.097 265.5,857C 259.472,857.83 253.472,857.664 247.5,856.5C 248.098,855.205 248.598,853.872 249,852.5C 249.667,837.5 249.667,822.5 249,807.5C 248.209,806.255 247.709,804.922 247.5,803.5 Z"/></g>
<g><path style="opacity:1" fill="#fafbe2" d="M 423.5,803.5 C 440.009,803.17 456.342,803.504 472.5,804.5C 472.768,807.119 472.435,809.619 471.5,812C 465.509,812.499 459.509,812.666 453.5,812.5C 458.975,811.511 464.642,811.178 470.5,811.5C 470.993,809.194 471.326,806.861 471.5,804.5C 455.833,804.5 440.167,804.5 424.5,804.5C 424.993,806.806 425.326,809.139 425.5,811.5C 431.026,811.179 436.36,811.512 441.5,812.5C 435.794,812.829 430.128,812.495 424.5,811.5C 423.607,808.916 423.274,806.249 423.5,803.5 Z"/></g>
<g><path style="opacity:1" fill="#f2e8bb" d="M 569.5,805.5 C 581.167,805.5 592.833,805.5 604.5,805.5C 604.5,807.5 604.5,809.5 604.5,811.5C 597.159,811.334 589.826,811.5 582.5,812C 581.176,817.266 581.176,822.433 582.5,827.5C 589.833,827.5 597.167,827.5 604.5,827.5C 604.817,830.572 604.484,833.572 603.5,836.5C 596.558,835.536 589.558,835.203 582.5,835.5C 582.5,840.833 582.5,846.167 582.5,851.5C 590.528,851.169 598.528,851.502 606.5,852.5C 605.652,854.409 605.318,856.409 605.5,858.5C 593.5,858.5 581.5,858.5 569.5,858.5C 570.794,840.785 570.794,823.118 569.5,805.5 Z"/></g>
<g><path style="opacity:1" fill="#03171e" d="M 384.5,831.5 C 383.833,827.5 383.167,823.5 382.5,819.5C 382.5,818.5 382.5,817.5 382.5,816.5C 382.5,815.167 382.5,813.833 382.5,812.5C 390.114,810.965 396.448,812.965 401.5,818.5C 395.623,822.6 389.957,826.933 384.5,831.5 Z"/></g>
<g><path style="opacity:1" fill="#f4e7b6" d="M 453.5,812.5 C 452.34,825.327 452.173,838.327 453,851.5C 453.402,852.872 453.902,854.205 454.5,855.5C 450.205,856.661 445.871,856.828 441.5,856C 442.126,855.25 442.626,854.416 443,853.5C 443.827,839.66 443.661,825.994 442.5,812.5C 442.167,812.5 441.833,812.5 441.5,812.5C 436.36,811.512 431.026,811.179 425.5,811.5C 425.326,809.139 424.993,806.806 424.5,804.5C 440.167,804.5 455.833,804.5 471.5,804.5C 471.326,806.861 470.993,809.194 470.5,811.5C 464.642,811.178 458.975,811.511 453.5,812.5 Z"/></g>
<g><path style="opacity:1" fill="#eeefd1" d="M 655.5,858.5 C 659.337,859.134 663.17,859.801 667,860.5C 660.784,842.196 653.951,824.029 646.5,806C 641.833,805.333 637.167,805.333 632.5,806C 633.252,806.671 633.586,807.504 633.5,808.5C 632.188,807.855 631.188,806.855 630.5,805.5C 636.137,804.337 641.804,804.17 647.5,805C 654.129,821.763 660.629,838.596 667,855.5C 667.792,857.587 668.959,859.421 670.5,861C 665.511,861.499 660.511,861.666 655.5,861.5C 655.5,860.5 655.5,859.5 655.5,858.5 Z"/></g>
<g><path style="opacity:1" fill="#0c0f11" d="M 604.5,827.5 C 597.167,827.5 589.833,827.5 582.5,827.5C 582.5,822.833 582.5,818.167 582.5,813.5C 590.167,813.5 597.833,813.5 605.5,813.5C 605.5,810.5 605.5,807.5 605.5,804.5C 594.5,804.5 583.5,804.5 572.5,804.5C 571.391,803.71 570.058,803.21 568.5,803C 580.833,802.333 593.167,802.333 605.5,803C 606.98,804.299 607.646,805.966 607.5,808C 607.212,810.187 606.878,812.354 606.5,814.5C 599.167,814.5 591.833,814.5 584.5,814.5C 584.5,818.5 584.5,822.5 584.5,826.5C 591.926,826.167 598.592,826.501 604.5,827.5 Z"/></g>
<g><path style="opacity:1" fill="#f3e8bc" d="M 225.5,802.5 C 229.67,801.993 232.67,803.659 234.5,807.5C 226.854,810.99 219.854,815.49 213.5,821C 220.969,825.637 228.302,830.47 235.5,835.5C 234.902,836.795 234.402,838.128 234,839.5C 223.17,847.82 211.67,855.153 199.5,861.5C 197.11,860.109 195.443,858.109 194.5,855.5C 203.183,850.159 211.516,844.326 219.5,838C 210.335,832.919 201.335,827.585 192.5,822C 203.563,815.474 214.563,808.974 225.5,802.5 Z"/></g>
<g><path style="opacity:1" fill="#fbfae0" d="M 401.5,805.5 C 391.552,804.55 381.552,804.216 371.5,804.5C 371.825,821.411 371.492,838.244 370.5,855C 374.152,855.499 377.818,855.665 381.5,855.5C 381.171,842.323 381.505,829.323 382.5,816.5C 382.5,817.5 382.5,818.5 382.5,819.5C 382.172,831.678 382.505,843.678 383.5,855.5C 383.5,855.833 383.5,856.167 383.5,856.5C 378.637,856.819 373.97,856.486 369.5,855.5C 370.77,838.28 370.77,821.114 369.5,804C 379.833,803.333 390.167,803.333 400.5,804C 401.056,804.383 401.389,804.883 401.5,805.5 Z"/></g>
<g><path style="opacity:1" fill="#f4e9bc" d="M 512.5,803.5 C 527.833,803.5 543.167,803.5 558.5,803.5C 558.846,806.602 558.179,809.435 556.5,812C 551.177,812.499 545.844,812.666 540.5,812.5C 540.333,825.504 540.5,838.504 541,851.5C 541.36,853.421 542.194,855.088 543.5,856.5C 537.833,857.833 532.167,857.833 526.5,856.5C 527.531,855.3 528.365,853.966 529,852.5C 529.5,839.504 529.667,826.504 529.5,813.5C 523.833,813.5 518.167,813.5 512.5,813.5C 512.5,810.167 512.5,806.833 512.5,803.5 Z"/></g>
<g><path style="opacity:1" fill="#f4e8bb" d="M 720.5,804.5 C 725.695,804.179 730.695,804.513 735.5,805.5C 736.259,823.167 737.093,840.833 738,858.5C 738.366,860.452 739.199,862.118 740.5,863.5C 734.974,863.821 729.64,863.488 724.5,862.5C 724.826,851.123 724.326,839.79 723,828.5C 717.673,835.152 712.84,842.152 708.5,849.5C 703.928,842.032 699.095,834.699 694,827.5C 693.666,839.556 693.499,851.556 693.5,863.5C 688.565,862.552 683.565,862.219 678.5,862.5C 680.525,850.946 681.025,839.279 680,827.5C 679.667,821.167 679.333,814.833 679,808.5C 678.535,807.069 677.701,805.903 676.5,805C 681.833,804.333 687.167,804.333 692.5,805C 696.867,814.239 701.867,823.072 707.5,831.5C 713.16,823.179 717.493,814.179 720.5,804.5 Z"/></g>
<g><path style="opacity:0.202" fill="#b7bdbf" d="M 18.5,839.5 C 21.4951,839.294 24.1617,839.96 26.5,841.5C 23.5718,841.435 20.9052,840.768 18.5,839.5 Z"/></g>
<g><path style="opacity:1" fill="#8f969b" d="M 26.5,841.5 C 29.2282,841.171 31.5615,841.837 33.5,843.5C 30.9327,843.279 28.5994,842.612 26.5,841.5 Z"/></g>
<g><path style="opacity:1" fill="#5b6063" d="M 862.5,840.5 C 858.736,841.992 854.736,842.992 850.5,843.5C 853.969,840.208 857.969,839.208 862.5,840.5 Z"/></g>
<g><path style="opacity:1" fill="#707a69" d="M 382.5,819.5 C 383.167,823.5 383.833,827.5 384.5,831.5C 384.5,831.833 384.5,832.167 384.5,832.5C 383.508,839.982 383.175,847.648 383.5,855.5C 382.505,843.678 382.172,831.678 382.5,819.5 Z"/></g>
<g><path style="opacity:1" fill="#f4e9bc" d="M 325.5,800.5 C 337.231,809.725 348.231,819.892 358.5,831C 348.075,840.289 337.575,849.456 327,858.5C 322.896,856.067 319.063,853.233 315.5,850C 308.657,843.989 301.99,837.822 295.5,831.5C 296,830.5 296.5,829.5 297,828.5C 306.395,818.937 315.895,809.604 325.5,800.5 Z"/></g>
<g><path style="opacity:1" fill="#031820" d="M 326.5,812.5 C 332.996,818.163 338.996,824.329 344.5,831C 338.667,836.167 332.833,841.333 327,846.5C 321.625,840.958 316.125,835.624 310.5,830.5C 315.484,824.183 320.818,818.183 326.5,812.5 Z"/></g>
<g><path style="opacity:1" fill="#f4e8b9" d="M 655.5,858.5 C 653.399,855.203 652.065,851.537 651.5,847.5C 644.819,846.523 638.152,846.523 631.5,847.5C 630.026,851.731 629.026,856.064 628.5,860.5C 623.786,860.827 619.12,860.493 614.5,859.5C 615.919,857.664 617.086,855.664 618,853.5C 622.878,838.364 628.045,823.364 633.5,808.5C 633.586,807.504 633.252,806.671 632.5,806C 637.167,805.333 641.833,805.333 646.5,806C 653.951,824.029 660.784,842.196 667,860.5C 663.17,859.801 659.337,859.134 655.5,858.5 Z"/></g>
<g><path style="opacity:1" fill="#0a191f" d="M 640.5,820.5 C 641.497,820.47 642.164,820.97 642.5,822C 644.282,827.839 645.948,833.673 647.5,839.5C 643.02,839.732 638.687,839.065 634.5,837.5C 637.367,832.107 639.367,826.44 640.5,820.5 Z"/></g>
<g><path style="opacity:1" fill="#0a1116" d="M 473.5,802.5 C 474.139,803.097 474.472,803.93 474.5,805C 474.244,808.322 473.244,811.322 471.5,814C 466.177,814.499 460.844,814.666 455.5,814.5C 455.333,827.171 455.5,839.838 456,852.5C 457.411,854.65 458.245,856.984 458.5,859.5C 452.491,859.666 446.491,859.499 440.5,859C 438.18,857.512 438.013,855.679 440,853.5C 440.5,840.504 440.667,827.504 440.5,814.5C 437.813,814.664 435.146,814.497 432.5,814C 435.482,813.502 438.482,813.335 441.5,813.5C 441.175,821.019 441.508,828.352 442.5,835.5C 442.666,841.176 442.499,846.843 442,852.5C 441.293,854.081 440.46,855.581 439.5,857C 445.196,857.83 450.863,857.663 456.5,856.5C 455.103,854.018 454.269,851.352 454,848.5C 453.5,836.505 453.333,824.505 453.5,812.5C 459.509,812.666 465.509,812.499 471.5,812C 472.435,809.619 472.768,807.119 472.5,804.5C 473.338,804.158 473.672,803.492 473.5,802.5 Z"/></g>
<g><path style="opacity:1" fill="#434c4f" d="M 769.5,845.5 C 775.554,846.238 781.387,847.905 787,850.5C 788.31,851.13 789.144,852.13 789.5,853.5C 783.224,851.463 777.057,849.13 771,846.5C 770.5,853.492 770.334,860.492 770.5,867.5C 769.508,860.352 769.175,853.019 769.5,845.5 Z"/></g>
<g><path style="opacity:1" fill="#787c6b" d="M 369.5,855.5 C 373.97,856.486 378.637,856.819 383.5,856.5C 378.652,857.814 373.652,857.814 368.5,856.5C 368.624,855.893 368.957,855.56 369.5,855.5 Z"/></g>
<g><path style="opacity:1" fill="#faf9e0" d="M 442.5,812.5 C 443.661,825.994 443.827,839.66 443,853.5C 442.626,854.416 442.126,855.25 441.5,856C 445.871,856.828 450.205,856.661 454.5,855.5C 453.902,854.205 453.402,852.872 453,851.5C 452.173,838.327 452.34,825.327 453.5,812.5C 453.333,824.505 453.5,836.505 454,848.5C 454.269,851.352 455.103,854.018 456.5,856.5C 450.863,857.663 445.196,857.83 439.5,857C 440.46,855.581 441.293,854.081 442,852.5C 442.499,846.843 442.666,841.176 442.5,835.5C 442.5,827.833 442.5,820.167 442.5,812.5 Z"/></g>
<g><path style="opacity:1" fill="#6e7a6a" d="M 724.5,862.5 C 729.64,863.488 734.974,863.821 740.5,863.5C 734.987,864.816 729.32,864.816 723.5,863.5C 723.624,862.893 723.957,862.56 724.5,862.5 Z"/></g>
<g><path style="opacity:1" fill="#222425" d="M 769.5,845.5 C 769.175,853.019 769.508,860.352 770.5,867.5C 770.5,879.833 770.5,892.167 770.5,904.5C 762.046,903.702 753.713,902.369 745.5,900.5C 744.391,899.71 743.058,899.21 741.5,899C 742.5,898.833 743.5,898.667 744.5,898.5C 752.869,899.677 761.202,901.01 769.5,902.5C 768.889,883.329 768.889,864.329 769.5,845.5 Z"/></g>
<g><path style="opacity:1" fill="#525657" d="M 450.5,962.5 C 449.167,963.5 447.833,964.5 446.5,965.5C 445.5,965.5 444.5,965.5 443.5,965.5C 443.5,965.167 443.5,964.833 443.5,964.5C 445.506,962.312 447.839,961.646 450.5,962.5 Z"/></g>
</svg>
